<svg width="171" height="48" viewBox="0 0 171 48" fill="none" xmlns="http://www.w3.org/2000/svg">
<mask id="path-1-outside-1_9_68" maskUnits="userSpaceOnUse" x="-1" y="-2" width="174" height="52" fill="black">
<rect fill="#000" x="-1" y="-2" width="174" height="52"/>
<path d="M39.4517 9.74V0.759999L41.6117 2.74V7.68L39.4517 9.74ZM51.6317 0.759999V9.74L49.4717 7.76V2.84L51.6317 0.759999ZM39.3917 10.42L41.5517 12.48V17.42L39.3917 19.38V10.42ZM51.5717 19.38L49.4117 17.3V12.38L51.5717 10.42V19.38ZM42.6317 6.68V2.62L48.3117 12.18V16.26L42.6317 6.68ZM57.3478 21.26L59.4078 19.1H64.3478L66.3078 21.26H57.3478ZM56.7678 11.44L58.9078 13.52V18.42L56.7678 20.38V11.44ZM59.0678 12.16C58.5745 11.7733 58.1078 11.4067 57.6678 11.06L59.0678 10H64.5278L65.9278 11.06L64.5278 12.16H59.0678ZM57.3278 0.939999H66.2478L64.3078 3.1H59.3678L57.3278 0.939999ZM56.7078 10.74V1.8L58.8478 3.74V8.7L56.7078 10.74ZM71.5639 5.7V2.04L77.5039 9.12L83.4439 2.04V5.7L79.0439 10.96L83.4439 16.2V19.88L77.5039 12.8L71.5639 19.88V16.2L75.9639 10.96L71.5639 5.7ZM89.04 21.26L91.1 19.1H96.04L97.98 21.26H89.04ZM88.44 11.44L90.6 13.52V18.42L88.44 20.38V11.44ZM98.62 20.38L96.46 18.32V13.4L98.62 11.44V20.38ZM90.76 12.16C90.2933 11.7867 89.82 11.42 89.34 11.06L90.76 10H96.22L97.62 11.06L96.22 12.16H90.76ZM89.02 0.939999H97.96L95.98 3.1H91.08L89.02 0.939999ZM88.38 10.74V1.8L90.54 3.74V8.7L88.38 10.74ZM105.336 21.26L107.396 19.1H112.336L114.296 21.26H105.336ZM104.756 11.44L106.896 13.52V18.42L104.756 20.38V11.44ZM107.056 12.16C106.563 11.7733 106.096 11.4067 105.656 11.06L107.056 10H112.516L113.916 11.06L112.516 12.16H107.056ZM105.316 0.939999H114.236L112.296 3.1H107.356L105.316 0.939999ZM104.696 10.74V1.8L106.836 3.74V8.7L104.696 10.74ZM119.432 9.74V0.759999L121.592 2.74V7.68L119.432 9.74ZM131.612 0.759999V9.74L129.452 7.76V2.84L131.612 0.759999ZM119.372 10.42L121.532 12.48V17.42L119.372 19.38V10.42ZM131.552 19.38L129.392 17.3V12.38L131.552 10.42V19.38ZM122.612 6.68V2.62L128.292 12.18V16.26L122.612 6.68ZM1.36148 47.26L3.42148 45.1H8.36149L10.3215 47.26H1.36148ZM0.781484 37.44L2.92148 39.52V44.42L0.781484 46.38V37.44ZM1.34148 26.94H10.2615L8.32148 29.1H3.38148L1.34148 26.94ZM0.721485 36.74V27.8L2.86148 29.74V34.7L0.721485 36.74ZM25.9576 31.1L17.0776 45.7V42L21.0376 35.5L21.9576 36.48V34L25.9576 27.44V31.1ZM21.0376 35.5L21.9576 34V32.8L17.0776 27.44V31.28L21.0376 35.5ZM33.0537 47.26L35.1137 45.1H40.0537L41.9937 47.26H33.0537ZM32.4537 37.44L34.6137 39.52V44.42L32.4537 46.38V37.44ZM42.6337 46.38L40.4737 44.32V39.4L42.6337 37.44V46.38ZM34.7737 38.16C34.307 37.7867 33.8337 37.42 33.3537 37.06L34.7737 36H40.2337L41.6337 37.06L40.2337 38.16H34.7737ZM33.0337 26.94H41.9737L39.9937 29.1H35.0937L33.0337 26.94ZM32.3937 36.74V27.8L34.5537 29.74V34.7L32.3937 36.74ZM42.5737 27.8V36.74L40.4137 34.8V29.86L42.5737 27.8ZM49.3498 47.26L51.4098 45.1H56.3498L58.3098 47.26H49.3498ZM48.7698 37.44L50.9098 39.52V44.42L48.7698 46.38V37.44ZM51.0698 38.16C50.5764 37.7733 50.1098 37.4067 49.6698 37.06L51.0698 36H56.5298L57.9298 37.06L56.5298 38.16H51.0698ZM49.3298 26.94H58.2498L56.3098 29.1H51.3698L49.3298 26.94ZM48.7098 36.74V27.8L50.8498 29.74V34.7L48.7098 36.74ZM66.6259 40V44.42L64.4659 46.38V37.44L66.6259 40ZM71.0859 39.48L74.1659 42.72L73.9459 45.6C72.0392 43.6 71.0659 42.58 71.0259 42.54C70.9992 42.5 70.9592 42.46 70.9059 42.42C70.8525 42.38 70.8125 42.34 70.7859 42.3L67.7659 39.14L71.0859 39.48ZM64.4659 37.44L66.6259 39.52V44.42L64.4659 46.38V37.44ZM66.7659 38.16C66.2992 37.7733 65.8325 37.4067 65.3659 37.06L66.7659 36H72.2459L73.6459 37.06L72.2459 38.16H66.7659ZM65.0459 26.94H73.9659L72.0259 29.1H67.0859L65.0459 26.94ZM64.4059 36.74V27.8L66.5659 29.74V34.7L64.4059 36.74ZM74.6059 27.8V36.74L72.4459 34.8V29.86L74.6059 27.8ZM67.7659 39.14H70.7659C71.2059 39.6067 71.8325 40.2733 72.6459 41.14C73.4725 41.9933 73.9792 42.52 74.1659 42.72L73.9459 45.6C72.0392 43.6 71.0659 42.58 71.0259 42.54C70.9992 42.5 70.9592 42.46 70.9059 42.42C70.8525 42.38 70.8125 42.34 70.7859 42.3L67.7659 39.14ZM81.042 47.26L83.102 45.1H88.042L89.982 47.26H81.042ZM90.622 46.38L88.462 44.32V39.4L90.622 37.44V46.38ZM82.762 38.16C82.2953 37.7867 81.822 37.42 81.342 37.06L82.762 36H88.222L89.622 37.06L88.222 38.16H82.762ZM81.022 26.94H89.962L87.982 29.1H83.082L81.022 26.94ZM80.382 36.74V27.8L82.542 29.74V34.7L80.382 36.74ZM96.438 37.44L98.598 39.52V44.42L96.438 46.38V37.44ZM106.618 46.38L104.458 44.32V39.4L106.618 37.44V46.38ZM98.758 38.16C98.2914 37.7867 97.818 37.42 97.338 37.06L98.758 36H104.218L105.618 37.06L104.218 38.16H98.758ZM96.378 36.74V27.8L98.538 29.74V34.7L96.378 36.74ZM106.558 27.8V36.74L104.398 34.8V29.86L106.558 27.8ZM118.594 46.38L116.434 44.32V39.4L118.594 37.44V46.38ZM118.554 27.8V36.74L116.394 34.8V29.86L118.554 27.8ZM129.33 47.26L131.39 45.1H136.33L138.29 47.26H129.33ZM128.75 37.44L130.89 39.52V44.42L128.75 46.38V37.44ZM131.05 38.16C130.557 37.7733 130.09 37.4067 129.65 37.06L131.05 36H136.51L137.91 37.06L136.51 38.16H131.05ZM129.31 26.94H138.23L136.29 29.1H131.35L129.31 26.94ZM128.69 36.74V27.8L130.83 29.74V34.7L128.69 36.74ZM145.326 47.26L147.386 45.1H152.326L154.286 47.26H145.326ZM144.746 37.44L146.886 39.52V44.42L144.746 46.38V37.44ZM144.686 36.74V27.8L146.826 29.74V34.7L144.686 36.74ZM161.022 47.26L163.082 45.1H168.022L169.962 47.26H161.022ZM160.422 37.44L162.582 39.52V44.42L160.422 46.38V37.44ZM170.602 46.38L168.442 44.32V39.4L170.602 37.44V46.38ZM161.002 26.94H169.942L167.962 29.1H163.062L161.002 26.94ZM160.362 36.74V27.8L162.522 29.74V34.7L160.362 36.74ZM170.542 27.8V36.74L168.382 34.8V29.86L170.542 27.8Z"/>
</mask>
<path d="M39.4517 9.74V0.759999L41.6117 2.74V7.68L39.4517 9.74ZM51.6317 0.759999V9.74L49.4717 7.76V2.84L51.6317 0.759999ZM39.3917 10.42L41.5517 12.48V17.42L39.3917 19.38V10.42ZM51.5717 19.38L49.4117 17.3V12.38L51.5717 10.42V19.38ZM42.6317 6.68V2.62L48.3117 12.18V16.26L42.6317 6.68ZM57.3478 21.26L59.4078 19.1H64.3478L66.3078 21.26H57.3478ZM56.7678 11.44L58.9078 13.52V18.42L56.7678 20.38V11.44ZM59.0678 12.16C58.5745 11.7733 58.1078 11.4067 57.6678 11.06L59.0678 10H64.5278L65.9278 11.06L64.5278 12.16H59.0678ZM57.3278 0.939999H66.2478L64.3078 3.1H59.3678L57.3278 0.939999ZM56.7078 10.74V1.8L58.8478 3.74V8.7L56.7078 10.74ZM71.5639 5.7V2.04L77.5039 9.12L83.4439 2.04V5.7L79.0439 10.96L83.4439 16.2V19.88L77.5039 12.8L71.5639 19.88V16.2L75.9639 10.96L71.5639 5.7ZM89.04 21.26L91.1 19.1H96.04L97.98 21.26H89.04ZM88.44 11.44L90.6 13.52V18.42L88.44 20.38V11.44ZM98.62 20.38L96.46 18.32V13.4L98.62 11.44V20.38ZM90.76 12.16C90.2933 11.7867 89.82 11.42 89.34 11.06L90.76 10H96.22L97.62 11.06L96.22 12.16H90.76ZM89.02 0.939999H97.96L95.98 3.1H91.08L89.02 0.939999ZM88.38 10.74V1.8L90.54 3.74V8.7L88.38 10.74ZM105.336 21.26L107.396 19.1H112.336L114.296 21.26H105.336ZM104.756 11.44L106.896 13.52V18.42L104.756 20.38V11.44ZM107.056 12.16C106.563 11.7733 106.096 11.4067 105.656 11.06L107.056 10H112.516L113.916 11.06L112.516 12.16H107.056ZM105.316 0.939999H114.236L112.296 3.1H107.356L105.316 0.939999ZM104.696 10.74V1.8L106.836 3.74V8.7L104.696 10.74ZM119.432 9.74V0.759999L121.592 2.74V7.68L119.432 9.74ZM131.612 0.759999V9.74L129.452 7.76V2.84L131.612 0.759999ZM119.372 10.42L121.532 12.48V17.42L119.372 19.38V10.42ZM131.552 19.38L129.392 17.3V12.38L131.552 10.42V19.38ZM122.612 6.68V2.62L128.292 12.18V16.26L122.612 6.68ZM1.36148 47.26L3.42148 45.1H8.36149L10.3215 47.26H1.36148ZM0.781484 37.44L2.92148 39.52V44.42L0.781484 46.38V37.44ZM1.34148 26.94H10.2615L8.32148 29.1H3.38148L1.34148 26.94ZM0.721485 36.74V27.8L2.86148 29.74V34.7L0.721485 36.74ZM25.9576 31.1L17.0776 45.7V42L21.0376 35.5L21.9576 36.48V34L25.9576 27.44V31.1ZM21.0376 35.5L21.9576 34V32.8L17.0776 27.44V31.28L21.0376 35.5ZM33.0537 47.26L35.1137 45.1H40.0537L41.9937 47.26H33.0537ZM32.4537 37.44L34.6137 39.52V44.42L32.4537 46.38V37.44ZM42.6337 46.38L40.4737 44.32V39.4L42.6337 37.44V46.38ZM34.7737 38.16C34.307 37.7867 33.8337 37.42 33.3537 37.06L34.7737 36H40.2337L41.6337 37.06L40.2337 38.16H34.7737ZM33.0337 26.94H41.9737L39.9937 29.1H35.0937L33.0337 26.94ZM32.3937 36.74V27.8L34.5537 29.74V34.7L32.3937 36.74ZM42.5737 27.8V36.74L40.4137 34.8V29.86L42.5737 27.8ZM49.3498 47.26L51.4098 45.1H56.3498L58.3098 47.26H49.3498ZM48.7698 37.44L50.9098 39.52V44.42L48.7698 46.38V37.44ZM51.0698 38.16C50.5764 37.7733 50.1098 37.4067 49.6698 37.06L51.0698 36H56.5298L57.9298 37.06L56.5298 38.16H51.0698ZM49.3298 26.94H58.2498L56.3098 29.1H51.3698L49.3298 26.94ZM48.7098 36.74V27.8L50.8498 29.74V34.7L48.7098 36.74ZM66.6259 40V44.42L64.4659 46.38V37.44L66.6259 40ZM71.0859 39.48L74.1659 42.72L73.9459 45.6C72.0392 43.6 71.0659 42.58 71.0259 42.54C70.9992 42.5 70.9592 42.46 70.9059 42.42C70.8525 42.38 70.8125 42.34 70.7859 42.3L67.7659 39.14L71.0859 39.48ZM64.4659 37.44L66.6259 39.52V44.42L64.4659 46.38V37.44ZM66.7659 38.16C66.2992 37.7733 65.8325 37.4067 65.3659 37.06L66.7659 36H72.2459L73.6459 37.06L72.2459 38.16H66.7659ZM65.0459 26.94H73.9659L72.0259 29.1H67.0859L65.0459 26.94ZM64.4059 36.74V27.8L66.5659 29.74V34.7L64.4059 36.74ZM74.6059 27.8V36.74L72.4459 34.8V29.86L74.6059 27.8ZM67.7659 39.14H70.7659C71.2059 39.6067 71.8325 40.2733 72.6459 41.14C73.4725 41.9933 73.9792 42.52 74.1659 42.72L73.9459 45.6C72.0392 43.6 71.0659 42.58 71.0259 42.54C70.9992 42.5 70.9592 42.46 70.9059 42.42C70.8525 42.38 70.8125 42.34 70.7859 42.3L67.7659 39.14ZM81.042 47.26L83.102 45.1H88.042L89.982 47.26H81.042ZM90.622 46.38L88.462 44.32V39.4L90.622 37.44V46.38ZM82.762 38.16C82.2953 37.7867 81.822 37.42 81.342 37.06L82.762 36H88.222L89.622 37.06L88.222 38.16H82.762ZM81.022 26.94H89.962L87.982 29.1H83.082L81.022 26.94ZM80.382 36.74V27.8L82.542 29.74V34.7L80.382 36.74ZM96.438 37.44L98.598 39.52V44.42L96.438 46.38V37.44ZM106.618 46.38L104.458 44.32V39.4L106.618 37.44V46.38ZM98.758 38.16C98.2914 37.7867 97.818 37.42 97.338 37.06L98.758 36H104.218L105.618 37.06L104.218 38.16H98.758ZM96.378 36.74V27.8L98.538 29.74V34.7L96.378 36.74ZM106.558 27.8V36.74L104.398 34.8V29.86L106.558 27.8ZM118.594 46.38L116.434 44.32V39.4L118.594 37.44V46.38ZM118.554 27.8V36.74L116.394 34.8V29.86L118.554 27.8ZM129.33 47.26L131.39 45.1H136.33L138.29 47.26H129.33ZM128.75 37.44L130.89 39.52V44.42L128.75 46.38V37.44ZM131.05 38.16C130.557 37.7733 130.09 37.4067 129.65 37.06L131.05 36H136.51L137.91 37.06L136.51 38.16H131.05ZM129.31 26.94H138.23L136.29 29.1H131.35L129.31 26.94ZM128.69 36.74V27.8L130.83 29.74V34.7L128.69 36.74ZM145.326 47.26L147.386 45.1H152.326L154.286 47.26H145.326ZM144.746 37.44L146.886 39.52V44.42L144.746 46.38V37.44ZM144.686 36.74V27.8L146.826 29.74V34.7L144.686 36.74ZM161.022 47.26L163.082 45.1H168.022L169.962 47.26H161.022ZM160.422 37.44L162.582 39.52V44.42L160.422 46.38V37.44ZM170.602 46.38L168.442 44.32V39.4L170.602 37.44V46.38ZM161.002 26.94H169.942L167.962 29.1H163.062L161.002 26.94ZM160.362 36.74V27.8L162.522 29.74V34.7L160.362 36.74ZM170.542 27.8V36.74L168.382 34.8V29.86L170.542 27.8Z" fill="#e0e0e0"/>
<path d="M39.4517 9.74H38.4517V12.0756L40.1419 10.4637L39.4517 9.74ZM39.4517 0.759999L40.1274 0.022845L38.4517 -1.51324V0.759999H39.4517ZM41.6117 2.74H42.6117V2.3001L42.2874 2.00284L41.6117 2.74ZM41.6117 7.68L42.3019 8.40366L42.6117 8.10816V7.68H41.6117ZM51.6317 0.759999H52.6317V-1.59124L50.9381 0.0396792L51.6317 0.759999ZM51.6317 9.74L50.956 10.4772L52.6317 12.0132V9.74H51.6317ZM49.4717 7.76H48.4717V8.1999L48.796 8.49715L49.4717 7.76ZM49.4717 2.84L48.7781 2.11968L48.4717 2.41469V2.84H49.4717ZM39.3917 10.42L40.0819 9.69634L38.3917 8.08443V10.42H39.3917ZM41.5517 12.48H42.5517V12.0518L42.2419 11.7563L41.5517 12.48ZM41.5517 17.42L42.2237 18.1606L42.5517 17.8629V17.42H41.5517ZM39.3917 19.38H38.3917V21.6377L40.0637 20.1206L39.3917 19.38ZM51.5717 19.38L50.8781 20.1003L52.5717 21.7312V19.38H51.5717ZM49.4117 17.3H48.4117V17.7253L48.7181 18.0203L49.4117 17.3ZM49.4117 12.38L48.7397 11.6394L48.4117 11.9371V12.38H49.4117ZM51.5717 10.42H52.5717V8.16226L50.8997 9.67944L51.5717 10.42ZM42.6317 6.68H41.6317V6.95417L41.7715 7.19L42.6317 6.68ZM42.6317 2.62L43.4914 2.10921L41.6317 -1.02086V2.62H42.6317ZM48.3117 12.18H49.3117V11.9053L49.1714 11.6692L48.3117 12.18ZM48.3117 16.26L47.4515 16.77L49.3117 19.9074V16.26H48.3117ZM40.4517 9.74V0.759999H38.4517V9.74H40.4517ZM38.776 1.49715L40.936 3.47715L42.2874 2.00284L40.1274 0.022845L38.776 1.49715ZM40.6117 2.74V7.68H42.6117V2.74H40.6117ZM40.9216 6.95634L38.7616 9.01634L40.1419 10.4637L42.3019 8.40366L40.9216 6.95634ZM50.6317 0.759999V9.74H52.6317V0.759999H50.6317ZM52.3074 9.00285L50.1474 7.02285L48.796 8.49715L50.956 10.4772L52.3074 9.00285ZM50.4717 7.76V2.84H48.4717V7.76H50.4717ZM50.1654 3.56032L52.3254 1.48032L50.9381 0.0396792L48.7781 2.11968L50.1654 3.56032ZM38.7016 11.1437L40.8616 13.2037L42.2419 11.7563L40.0819 9.69634L38.7016 11.1437ZM40.5517 12.48V17.42H42.5517V12.48H40.5517ZM40.8797 16.6794L38.7197 18.6394L40.0637 20.1206L42.2237 18.1606L40.8797 16.6794ZM40.3917 19.38V10.42H38.3917V19.38H40.3917ZM52.2654 18.6597L50.1054 16.5797L48.7181 18.0203L50.8781 20.1003L52.2654 18.6597ZM50.4117 17.3V12.38H48.4117V17.3H50.4117ZM50.0837 13.1206L52.2437 11.1606L50.8997 9.67944L48.7397 11.6394L50.0837 13.1206ZM50.5717 10.42V19.38H52.5717V10.42H50.5717ZM43.6317 6.68V2.62H41.6317V6.68H43.6317ZM41.772 3.13079L47.452 12.6908L49.1714 11.6692L43.4914 2.10921L41.772 3.13079ZM47.3117 12.18V16.26H49.3117V12.18H47.3117ZM49.1719 15.75L43.4919 6.17L41.7715 7.19L47.4515 16.77L49.1719 15.75ZM57.3478 21.26L56.6242 20.5698L55.0122 22.26H57.3478V21.26ZM59.4078 19.1V18.1H58.9797L58.6842 18.4098L59.4078 19.1ZM64.3478 19.1L65.0884 18.428L64.7907 18.1H64.3478V19.1ZM66.3078 21.26V22.26H68.5655L67.0484 20.588L66.3078 21.26ZM56.7678 11.44L57.4648 10.7229L55.7678 9.07351V11.44H56.7678ZM58.9078 13.52H59.9078V13.0974L59.6048 12.8029L58.9078 13.52ZM58.9078 18.42L59.5832 19.1574L59.9078 18.8602V18.42H58.9078ZM56.7678 20.38H55.7678V22.6519L57.4432 21.1174L56.7678 20.38ZM59.0678 12.16L58.4509 12.9471L58.7226 13.16H59.0678V12.16ZM57.6678 11.06L57.0642 10.2627L56.032 11.0443L57.0489 11.8455L57.6678 11.06ZM59.0678 10V9H58.7319L58.4642 9.20274L59.0678 10ZM64.5278 10L65.1315 9.20274L64.8637 9H64.5278V10ZM65.9278 11.06L66.5456 11.8463L67.5651 11.0453L66.5315 10.2627L65.9278 11.06ZM64.5278 12.16V13.16H64.8737L65.1456 12.9463L64.5278 12.16ZM57.3278 0.939999V-0.0600007H55.0079L56.6008 1.62662L57.3278 0.939999ZM66.2478 0.939999L66.9918 1.6082L68.4901 -0.0600007H66.2478V0.939999ZM64.3078 3.1V4.1H64.7538L65.0518 3.7682L64.3078 3.1ZM59.3678 3.1L58.6408 3.78662L58.9368 4.1H59.3678V3.1ZM56.7078 10.74H55.7078V13.0748L57.3978 11.4638L56.7078 10.74ZM56.7078 1.8L57.3795 1.05912L55.7078 -0.456291V1.8H56.7078ZM58.8478 3.74H59.8478V3.29679L59.5195 2.99912L58.8478 3.74ZM58.8478 8.7L59.5378 9.42382L59.8478 9.12829V8.7H58.8478ZM58.0715 21.9502L60.1315 19.7902L58.6842 18.4098L56.6242 20.5698L58.0715 21.9502ZM59.4078 20.1H64.3478V18.1H59.4078V20.1ZM63.6073 19.772L65.5673 21.932L67.0484 20.588L65.0884 18.428L63.6073 19.772ZM66.3078 20.26H57.3478V22.26H66.3078V20.26ZM56.0708 12.1571L58.2108 14.2371L59.6048 12.8029L57.4648 10.7229L56.0708 12.1571ZM57.9078 13.52V18.42H59.9078V13.52H57.9078ZM58.2324 17.6826L56.0924 19.6426L57.4432 21.1174L59.5832 19.1574L58.2324 17.6826ZM57.7678 20.38V11.44H55.7678V20.38H57.7678ZM59.6847 11.3729C59.1919 10.9867 58.7259 10.6206 58.2867 10.2745L57.0489 11.8455C57.4897 12.1927 57.957 12.5599 58.4509 12.9471L59.6847 11.3729ZM58.2715 11.8573L59.6715 10.7973L58.4642 9.20274L57.0642 10.2627L58.2715 11.8573ZM59.0678 11H64.5278V9H59.0678V11ZM63.9242 10.7973L65.3242 11.8573L66.5315 10.2627L65.1315 9.20274L63.9242 10.7973ZM65.31 10.2737L63.91 11.3737L65.1456 12.9463L66.5456 11.8463L65.31 10.2737ZM64.5278 11.16H59.0678V13.16H64.5278V11.16ZM57.3278 1.94H66.2478V-0.0600007H57.3278V1.94ZM65.5038 0.271796L63.5638 2.4318L65.0518 3.7682L66.9918 1.6082L65.5038 0.271796ZM64.3078 2.1H59.3678V4.1H64.3078V2.1ZM60.0948 2.41338L58.0548 0.253376L56.6008 1.62662L58.6408 3.78662L60.0948 2.41338ZM57.7078 10.74V1.8H55.7078V10.74H57.7078ZM56.0362 2.54088L58.1762 4.48088L59.5195 2.99912L57.3795 1.05912L56.0362 2.54088ZM57.8478 3.74V8.7H59.8478V3.74H57.8478ZM58.1578 7.97618L56.0178 10.0162L57.3978 11.4638L59.5378 9.42382L58.1578 7.97618ZM71.5639 5.7H70.5639V6.06311L70.7969 6.34162L71.5639 5.7ZM71.5639 2.04L72.33 1.39726L70.5639 -0.70777V2.04H71.5639ZM77.5039 9.12L76.7378 9.76273L77.5039 10.6759L78.27 9.76273L77.5039 9.12ZM83.4439 2.04H84.4439V-0.70777L82.6778 1.39726L83.4439 2.04ZM83.4439 5.7L84.2109 6.34162L84.4439 6.06311V5.7H83.4439ZM79.0439 10.96L78.2769 10.3184L77.7391 10.9612L78.2781 11.6031L79.0439 10.96ZM83.4439 16.2H84.4439V15.8358L84.2097 15.5569L83.4439 16.2ZM83.4439 19.88L82.6778 20.5227L84.4439 22.6278V19.88H83.4439ZM77.5039 12.8L78.27 12.1573L77.5039 11.2441L76.7378 12.1573L77.5039 12.8ZM71.5639 19.88H70.5639V22.6278L72.33 20.5227L71.5639 19.88ZM71.5639 16.2L70.7981 15.5569L70.5639 15.8358V16.2H71.5639ZM75.9639 10.96L76.7297 11.6031L77.2687 10.9612L76.7309 10.3184L75.9639 10.96ZM72.5639 5.7V2.04H70.5639V5.7H72.5639ZM70.7978 2.68273L76.7378 9.76273L78.27 8.47726L72.33 1.39726L70.7978 2.68273ZM78.27 9.76273L84.21 2.68273L82.6778 1.39726L76.7378 8.47726L78.27 9.76273ZM82.4439 2.04V5.7H84.4439V2.04H82.4439ZM82.6769 5.05838L78.2769 10.3184L79.8109 11.6016L84.2109 6.34162L82.6769 5.05838ZM78.2781 11.6031L82.6781 16.8431L84.2097 15.5569L79.8097 10.3169L78.2781 11.6031ZM82.4439 16.2V19.88H84.4439V16.2H82.4439ZM84.21 19.2373L78.27 12.1573L76.7378 13.4427L82.6778 20.5227L84.21 19.2373ZM76.7378 12.1573L70.7978 19.2373L72.33 20.5227L78.27 13.4427L76.7378 12.1573ZM72.5639 19.88V16.2H70.5639V19.88H72.5639ZM72.3297 16.8431L76.7297 11.6031L75.1981 10.3169L70.7981 15.5569L72.3297 16.8431ZM76.7309 10.3184L72.3309 5.05838L70.7969 6.34162L75.1969 11.6016L76.7309 10.3184ZM89.04 21.26L88.3163 20.5698L86.7044 22.26H89.04V21.26ZM91.1 19.1V18.1H90.6718L90.3763 18.4098L91.1 19.1ZM96.04 19.1L96.784 18.4318L96.486 18.1H96.04V19.1ZM97.98 21.26V22.26H100.222L98.724 20.5918L97.98 21.26ZM88.44 11.44L89.1336 10.7197L87.44 9.08877V11.44H88.44ZM90.6 13.52H91.6V13.0947L91.2936 12.7997L90.6 13.52ZM90.6 18.42L91.272 19.1606L91.6 18.8629V18.42H90.6ZM88.44 20.38H87.44V22.6377L89.112 21.1206L88.44 20.38ZM98.62 20.38L97.9298 21.1037L99.62 22.7156V20.38H98.62ZM96.46 18.32H95.46V18.7482L95.7698 19.0437L96.46 18.32ZM96.46 13.4L95.788 12.6594L95.46 12.9571V13.4H96.46ZM98.62 11.44H99.62V9.18226L97.948 10.6994L98.62 11.44ZM90.76 12.16L90.1353 12.9409L90.4092 13.16H90.76V12.16ZM89.34 11.06L88.7418 10.2586L87.6708 11.0581L88.74 11.86L89.34 11.06ZM90.76 10V9H90.4279L90.1618 9.19865L90.76 10ZM96.22 10L96.8236 9.20274L96.5559 9H96.22V10ZM97.62 11.06L98.2378 11.8463L99.2573 11.0453L98.2236 10.2627L97.62 11.06ZM96.22 12.16V13.16H96.5659L96.8378 12.9463L96.22 12.16ZM89.02 0.939999V-0.0600007H86.6844L88.2963 1.63016L89.02 0.939999ZM97.96 0.939999L98.6972 1.61572L100.233 -0.0600007H97.96V0.939999ZM95.98 3.1V4.1H96.4199L96.7172 3.77572L95.98 3.1ZM91.08 3.1L90.3563 3.79016L90.6518 4.1H91.08V3.1ZM88.38 10.74H87.38V13.0599L89.0666 11.467L88.38 10.74ZM88.38 1.8L89.0482 1.05602L87.38 -0.442274V1.8H88.38ZM90.54 3.74H91.54V3.29402L91.2082 2.99602L90.54 3.74ZM90.54 8.7L91.2266 9.42701L91.54 9.13105V8.7H90.54ZM89.7637 21.9502L91.8237 19.7902L90.3763 18.4098L88.3163 20.5698L89.7637 21.9502ZM91.1 20.1H96.04V18.1H91.1V20.1ZM95.296 19.7682L97.236 21.9282L98.724 20.5918L96.784 18.4318L95.296 19.7682ZM97.98 20.26H89.04V22.26H97.98V20.26ZM87.7464 12.1603L89.9064 14.2403L91.2936 12.7997L89.1336 10.7197L87.7464 12.1603ZM89.6 13.52V18.42H91.6V13.52H89.6ZM89.928 17.6794L87.768 19.6394L89.112 21.1206L91.272 19.1606L89.928 17.6794ZM89.44 20.38V11.44H87.44V20.38H89.44ZM99.3102 19.6563L97.1502 17.5963L95.7698 19.0437L97.9298 21.1037L99.3102 19.6563ZM97.46 18.32V13.4H95.46V18.32H97.46ZM97.132 14.1406L99.292 12.1806L97.948 10.6994L95.788 12.6594L97.132 14.1406ZM97.62 11.44V20.38H99.62V11.44H97.62ZM91.3847 11.3791C90.9099 10.9993 90.4283 10.6262 89.94 10.26L88.74 11.86C89.2117 12.2138 89.6768 12.5741 90.1353 12.9409L91.3847 11.3791ZM89.9382 11.8614L91.3582 10.8014L90.1618 9.19865L88.7418 10.2586L89.9382 11.8614ZM90.76 11H96.22V9H90.76V11ZM95.6164 10.7973L97.0164 11.8573L98.2236 10.2627L96.8236 9.20274L95.6164 10.7973ZM97.0022 10.2737L95.6022 11.3737L96.8378 12.9463L98.2378 11.8463L97.0022 10.2737ZM96.22 11.16H90.76V13.16H96.22V11.16ZM89.02 1.94H97.96V-0.0600007H89.02V1.94ZM97.2228 0.264275L95.2428 2.42427L96.7172 3.77572L98.6972 1.61572L97.2228 0.264275ZM95.98 2.1H91.08V4.1H95.98V2.1ZM91.8037 2.40984L89.7437 0.249842L88.2963 1.63016L90.3563 3.79016L91.8037 2.40984ZM89.38 10.74V1.8H87.38V10.74H89.38ZM87.7118 2.54398L89.8718 4.48398L91.2082 2.99602L89.0482 1.05602L87.7118 2.54398ZM89.54 3.74V8.7H91.54V3.74H89.54ZM89.8534 7.97299L87.6934 10.013L89.0666 11.467L91.2266 9.42701L89.8534 7.97299ZM105.336 21.26L104.612 20.5698L103.001 22.26H105.336V21.26ZM107.396 19.1V18.1H106.968L106.672 18.4098L107.396 19.1ZM112.336 19.1L113.077 18.428L112.779 18.1H112.336V19.1ZM114.296 21.26V22.26H116.554L115.037 20.588L114.296 21.26ZM104.756 11.44L105.453 10.7229L103.756 9.07351V11.44H104.756ZM106.896 13.52H107.896V13.0974L107.593 12.8029L106.896 13.52ZM106.896 18.42L107.572 19.1574L107.896 18.8602V18.42H106.896ZM104.756 20.38H103.756V22.6519L105.432 21.1174L104.756 20.38ZM107.056 12.16L106.439 12.9471L106.711 13.16H107.056V12.16ZM105.656 11.06L105.052 10.2627L104.02 11.0443L105.037 11.8455L105.656 11.06ZM107.056 10V9H106.72L106.452 9.20274L107.056 10ZM112.516 10L113.12 9.20274L112.852 9H112.516V10ZM113.916 11.06L114.534 11.8463L115.553 11.0453L114.52 10.2627L113.916 11.06ZM112.516 12.16V13.16H112.862L113.134 12.9463L112.516 12.16ZM105.316 0.939999V-0.0600007H102.996L104.589 1.62662L105.316 0.939999ZM114.236 0.939999L114.98 1.6082L116.478 -0.0600007H114.236V0.939999ZM112.296 3.1V4.1H112.742L113.04 3.7682L112.296 3.1ZM107.356 3.1L106.629 3.78662L106.925 4.1H107.356V3.1ZM104.696 10.74H103.696V13.0748L105.386 11.4638L104.696 10.74ZM104.696 1.8L105.368 1.05912L103.696 -0.456291V1.8H104.696ZM106.836 3.74H107.836V3.29679L107.508 2.99912L106.836 3.74ZM106.836 8.7L107.526 9.42382L107.836 9.12829V8.7H106.836ZM106.06 21.9502L108.12 19.7902L106.672 18.4098L104.612 20.5698L106.06 21.9502ZM107.396 20.1H112.336V18.1H107.396V20.1ZM111.596 19.772L113.556 21.932L115.037 20.588L113.077 18.428L111.596 19.772ZM114.296 20.26H105.336V22.26H114.296V20.26ZM104.059 12.1571L106.199 14.2371L107.593 12.8029L105.453 10.7229L104.059 12.1571ZM105.896 13.52V18.42H107.896V13.52H105.896ZM106.221 17.6826L104.081 19.6426L105.432 21.1174L107.572 19.1574L106.221 17.6826ZM105.756 20.38V11.44H103.756V20.38H105.756ZM107.673 11.3729C107.18 10.9867 106.714 10.6206 106.275 10.2745L105.037 11.8455C105.478 12.1927 105.945 12.5599 106.439 12.9471L107.673 11.3729ZM106.26 11.8573L107.66 10.7973L106.452 9.20274L105.052 10.2627L106.26 11.8573ZM107.056 11H112.516V9H107.056V11ZM111.912 10.7973L113.312 11.8573L114.52 10.2627L113.12 9.20274L111.912 10.7973ZM113.298 10.2737L111.898 11.3737L113.134 12.9463L114.534 11.8463L113.298 10.2737ZM112.516 11.16H107.056V13.16H112.516V11.16ZM105.316 1.94H114.236V-0.0600007H105.316V1.94ZM113.492 0.271796L111.552 2.4318L113.04 3.7682L114.98 1.6082L113.492 0.271796ZM112.296 2.1H107.356V4.1H112.296V2.1ZM108.083 2.41338L106.043 0.253376L104.589 1.62662L106.629 3.78662L108.083 2.41338ZM105.696 10.74V1.8H103.696V10.74H105.696ZM104.024 2.54088L106.164 4.48088L107.508 2.99912L105.368 1.05912L104.024 2.54088ZM105.836 3.74V8.7H107.836V3.74H105.836ZM106.146 7.97618L104.006 10.0162L105.386 11.4638L107.526 9.42382L106.146 7.97618ZM119.432 9.74H118.432V12.0756L120.122 10.4637L119.432 9.74ZM119.432 0.759999L120.108 0.022845L118.432 -1.51324V0.759999H119.432ZM121.592 2.74H122.592V2.3001L122.268 2.00284L121.592 2.74ZM121.592 7.68L122.282 8.40366L122.592 8.10816V7.68H121.592ZM131.612 0.759999H132.612V-1.59124L130.919 0.0396792L131.612 0.759999ZM131.612 9.74L130.936 10.4772L132.612 12.0132V9.74H131.612ZM129.452 7.76H128.452V8.1999L128.776 8.49715L129.452 7.76ZM129.452 2.84L128.759 2.11968L128.452 2.41469V2.84H129.452ZM119.372 10.42L120.062 9.69634L118.372 8.08443V10.42H119.372ZM121.532 12.48H122.532V12.0518L122.222 11.7563L121.532 12.48ZM121.532 17.42L122.204 18.1606L122.532 17.8629V17.42H121.532ZM119.372 19.38H118.372V21.6377L120.044 20.1206L119.372 19.38ZM131.552 19.38L130.859 20.1003L132.552 21.7312V19.38H131.552ZM129.392 17.3H128.392V17.7253L128.699 18.0203L129.392 17.3ZM129.392 12.38L128.72 11.6394L128.392 11.9371V12.38H129.392ZM131.552 10.42H132.552V8.16226L130.88 9.67944L131.552 10.42ZM122.612 6.68H121.612V6.95417L121.752 7.19L122.612 6.68ZM122.612 2.62L123.472 2.10921L121.612 -1.02086V2.62H122.612ZM128.292 12.18H129.292V11.9053L129.152 11.6692L128.292 12.18ZM128.292 16.26L127.432 16.77L129.292 19.9074V16.26H128.292ZM120.432 9.74V0.759999H118.432V9.74H120.432ZM118.756 1.49715L120.916 3.47715L122.268 2.00284L120.108 0.022845L118.756 1.49715ZM120.592 2.74V7.68H122.592V2.74H120.592ZM120.902 6.95634L118.742 9.01634L120.122 10.4637L122.282 8.40366L120.902 6.95634ZM130.612 0.759999V9.74H132.612V0.759999H130.612ZM132.288 9.00285L130.128 7.02285L128.776 8.49715L130.936 10.4772L132.288 9.00285ZM130.452 7.76V2.84H128.452V7.76H130.452ZM130.146 3.56032L132.306 1.48032L130.919 0.0396792L128.759 2.11968L130.146 3.56032ZM118.682 11.1437L120.842 13.2037L122.222 11.7563L120.062 9.69634L118.682 11.1437ZM120.532 12.48V17.42H122.532V12.48H120.532ZM120.86 16.6794L118.7 18.6394L120.044 20.1206L122.204 18.1606L120.86 16.6794ZM120.372 19.38V10.42H118.372V19.38H120.372ZM132.246 18.6597L130.086 16.5797L128.699 18.0203L130.859 20.1003L132.246 18.6597ZM130.392 17.3V12.38H128.392V17.3H130.392ZM130.064 13.1206L132.224 11.1606L130.88 9.67944L128.72 11.6394L130.064 13.1206ZM130.552 10.42V19.38H132.552V10.42H130.552ZM123.612 6.68V2.62H121.612V6.68H123.612ZM121.752 3.13079L127.432 12.6908L129.152 11.6692L123.472 2.10921L121.752 3.13079ZM127.292 12.18V16.26H129.292V12.18H127.292ZM129.152 15.75L123.472 6.17L121.752 7.19L127.432 16.77L129.152 15.75ZM1.36148 47.26L0.637825 46.5698L-0.974084 48.26H1.36148V47.26ZM3.42148 45.1V44.1H2.99332L2.69783 44.4098L3.42148 45.1ZM8.36149 45.1L9.10205 44.428L8.80441 44.1H8.36149V45.1ZM10.3215 47.26V48.26H12.5792L11.062 46.588L10.3215 47.26ZM0.781484 37.44L1.47847 36.7229L-0.218516 35.0735V37.44H0.781484ZM2.92148 39.52H3.92148V39.0974L3.61847 38.8029L2.92148 39.52ZM2.92148 44.42L3.5969 45.1574L3.92148 44.8602V44.42H2.92148ZM0.781484 46.38H-0.218516V48.6519L1.4569 47.1174L0.781484 46.38ZM1.34148 26.94V25.94H-0.978451L0.614472 27.6266L1.34148 26.94ZM10.2615 26.94L11.0055 27.6082L12.5038 25.94H10.2615V26.94ZM8.32148 29.1V30.1H8.76746L9.06546 29.7682L8.32148 29.1ZM3.38148 29.1L2.65447 29.7866L2.95044 30.1H3.38148V29.1ZM0.721485 36.74H-0.278515V39.0748L1.41148 37.4638L0.721485 36.74ZM0.721485 27.8L1.39312 27.0591L-0.278515 25.5437V27.8H0.721485ZM2.86148 29.74H3.86148V29.2968L3.53312 28.9991L2.86148 29.74ZM2.86148 34.7L3.55148 35.4238L3.86148 35.1283V34.7H2.86148ZM2.08514 47.9502L4.14514 45.7902L2.69783 44.4098L0.637825 46.5698L2.08514 47.9502ZM3.42148 46.1H8.36149V44.1H3.42148V46.1ZM7.62093 45.772L9.58092 47.932L11.062 46.588L9.10205 44.428L7.62093 45.772ZM10.3215 46.26H1.36148V48.26H10.3215V46.26ZM0.0845017 38.1571L2.2245 40.2371L3.61847 38.8029L1.47847 36.7229L0.0845017 38.1571ZM1.92148 39.52V44.42H3.92148V39.52H1.92148ZM2.24607 43.6826L0.106072 45.6426L1.4569 47.1174L3.5969 45.1574L2.24607 43.6826ZM1.78148 46.38V37.44H-0.218516V46.38H1.78148ZM1.34148 27.94H10.2615V25.94H1.34148V27.94ZM9.51751 26.2718L7.57751 28.4318L9.06546 29.7682L11.0055 27.6082L9.51751 26.2718ZM8.32148 28.1H3.38148V30.1H8.32148V28.1ZM4.1085 28.4134L2.0685 26.2534L0.614472 27.6266L2.65447 29.7866L4.1085 28.4134ZM1.72148 36.74V27.8H-0.278515V36.74H1.72148ZM0.0498464 28.5409L2.18985 30.4809L3.53312 28.9991L1.39312 27.0591L0.0498464 28.5409ZM1.86148 29.74V34.7H3.86148V29.74H1.86148ZM2.17149 33.9762L0.0314917 36.0162L1.41148 37.4638L3.55148 35.4238L2.17149 33.9762ZM25.9576 31.1L26.812 31.6196L26.9576 31.3802V31.1H25.9576ZM17.0776 45.7H16.0776V49.2685L17.932 46.2197L17.0776 45.7ZM17.0776 42L16.2236 41.4797L16.0776 41.7194V42H17.0776ZM21.0376 35.5L21.7667 34.8156L20.8673 33.8575L20.1836 34.9797L21.0376 35.5ZM21.9576 36.48L21.2285 37.1644L22.9576 39.0063V36.48H21.9576ZM21.9576 34L21.1038 33.4794L20.9576 33.7192V34H21.9576ZM25.9576 27.44H26.9576V23.8792L25.1038 26.9194L25.9576 27.44ZM21.0376 35.5L20.3084 36.1843L21.205 37.1398L21.89 36.0228L21.0376 35.5ZM21.9576 34L22.81 34.5228L22.9576 34.2822V34H21.9576ZM21.9576 32.8H22.9576V32.413L22.697 32.1268L21.9576 32.8ZM17.0776 27.44L17.817 26.7668L16.0776 24.8562V27.44H17.0776ZM17.0776 31.28H16.0776V31.6757L16.3484 31.9643L17.0776 31.28ZM25.1032 30.5803L16.2232 45.1804L17.932 46.2197L26.812 31.6196L25.1032 30.5803ZM18.0776 45.7V42H16.0776V45.7H18.0776ZM17.9316 42.5203L21.8916 36.0203L20.1836 34.9797L16.2236 41.4797L17.9316 42.5203ZM20.3085 36.1844L21.2285 37.1644L22.6867 35.7956L21.7667 34.8156L20.3085 36.1844ZM22.9576 36.48V34H20.9576V36.48H22.9576ZM22.8114 34.5206L26.8114 27.9606L25.1038 26.9194L21.1038 33.4794L22.8114 34.5206ZM24.9576 27.44V31.1H26.9576V27.44H24.9576ZM21.89 36.0228L22.81 34.5228L21.1051 33.4772L20.1851 34.9772L21.89 36.0228ZM22.9576 34V32.8H20.9576V34H22.9576ZM22.697 32.1268L17.817 26.7668L16.3381 28.1132L21.2181 33.4732L22.697 32.1268ZM16.0776 27.44V31.28H18.0776V27.44H16.0776ZM16.3484 31.9643L20.3084 36.1843L21.7668 34.8157L17.8068 30.5957L16.3484 31.9643ZM33.0537 47.26L32.33 46.5698L30.7181 48.26H33.0537V47.26ZM35.1137 45.1V44.1H34.6855L34.39 44.4098L35.1137 45.1ZM40.0537 45.1L40.7977 44.4318L40.4996 44.1H40.0537V45.1ZM41.9937 47.26V48.26H44.2359L42.7377 46.5918L41.9937 47.26ZM32.4537 37.44L33.1473 36.7197L31.4537 35.0888V37.44H32.4537ZM34.6137 39.52H35.6137V39.0947L35.3073 38.7997L34.6137 39.52ZM34.6137 44.42L35.2857 45.1606L35.6137 44.8629V44.42H34.6137ZM32.4537 46.38H31.4537V48.6377L33.1257 47.1206L32.4537 46.38ZM42.6337 46.38L41.9435 47.1037L43.6337 48.7156V46.38H42.6337ZM40.4737 44.32H39.4737V44.7482L39.7835 45.0437L40.4737 44.32ZM40.4737 39.4L39.8017 38.6594L39.4737 38.9571V39.4H40.4737ZM42.6337 37.44H43.6337V35.1823L41.9617 36.6994L42.6337 37.44ZM34.7737 38.16L34.149 38.9409L34.4229 39.16H34.7737V38.16ZM33.3537 37.06L32.7555 36.2586L31.6845 37.0581L32.7537 37.86L33.3537 37.06ZM34.7737 36V35H34.4416L34.1755 35.1986L34.7737 36ZM40.2337 36L40.8373 35.2027L40.5695 35H40.2337V36ZM41.6337 37.06L42.2515 37.8463L43.2709 37.0453L42.2373 36.2627L41.6337 37.06ZM40.2337 38.16V39.16H40.5795L40.8515 38.9463L40.2337 38.16ZM33.0337 26.94V25.94H30.6981L32.31 27.6302L33.0337 26.94ZM41.9737 26.94L42.7108 27.6157L44.2469 25.94H41.9737V26.94ZM39.9937 29.1V30.1H40.4336L40.7308 29.7757L39.9937 29.1ZM35.0937 29.1L34.37 29.7902L34.6655 30.1H35.0937V29.1ZM32.3937 36.74H31.3937V39.0599L33.0803 37.467L32.3937 36.74ZM32.3937 27.8L33.0619 27.056L31.3937 25.5577V27.8H32.3937ZM34.5537 29.74H35.5537V29.294L35.2219 28.996L34.5537 29.74ZM34.5537 34.7L35.2403 35.427L35.5537 35.131V34.7H34.5537ZM42.5737 27.8H43.5737V25.4644L41.8835 27.0763L42.5737 27.8ZM42.5737 36.74L41.9055 37.484L43.5737 38.9823V36.74H42.5737ZM40.4137 34.8H39.4137V35.246L39.7455 35.544L40.4137 34.8ZM40.4137 29.86L39.7235 29.1363L39.4137 29.4318V29.86H40.4137ZM33.7773 47.9502L35.8373 45.7902L34.39 44.4098L32.33 46.5698L33.7773 47.9502ZM35.1137 46.1H40.0537V44.1H35.1137V46.1ZM39.3097 45.7682L41.2497 47.9282L42.7377 46.5918L40.7977 44.4318L39.3097 45.7682ZM41.9937 46.26H33.0537V48.26H41.9937V46.26ZM31.76 38.1603L33.92 40.2403L35.3073 38.7997L33.1473 36.7197L31.76 38.1603ZM33.6137 39.52V44.42H35.6137V39.52H33.6137ZM33.9417 43.6794L31.7817 45.6394L33.1257 47.1206L35.2857 45.1606L33.9417 43.6794ZM33.4537 46.38V37.44H31.4537V46.38H33.4537ZM43.3238 45.6563L41.1638 43.5963L39.7835 45.0437L41.9435 47.1037L43.3238 45.6563ZM41.4737 44.32V39.4H39.4737V44.32H41.4737ZM41.1457 40.1406L43.3057 38.1806L41.9617 36.6994L39.8017 38.6594L41.1457 40.1406ZM41.6337 37.44V46.38H43.6337V37.44H41.6337ZM35.3984 37.3791C34.9235 36.9993 34.442 36.6262 33.9537 36.26L32.7537 37.86C33.2254 38.2138 33.6905 38.5741 34.149 38.9409L35.3984 37.3791ZM33.9519 37.8614L35.3719 36.8014L34.1755 35.1986L32.7555 36.2586L33.9519 37.8614ZM34.7737 37H40.2337V35H34.7737V37ZM39.63 36.7973L41.03 37.8573L42.2373 36.2627L40.8373 35.2027L39.63 36.7973ZM41.0159 36.2737L39.6159 37.3737L40.8515 38.9463L42.2515 37.8463L41.0159 36.2737ZM40.2337 37.16H34.7737V39.16H40.2337V37.16ZM33.0337 27.94H41.9737V25.94H33.0337V27.94ZM41.2365 26.2643L39.2565 28.4243L40.7308 29.7757L42.7108 27.6157L41.2365 26.2643ZM39.9937 28.1H35.0937V30.1H39.9937V28.1ZM35.8173 28.4098L33.7573 26.2498L32.31 27.6302L34.37 29.7902L35.8173 28.4098ZM33.3937 36.74V27.8H31.3937V36.74H33.3937ZM31.7255 28.544L33.8855 30.484L35.2219 28.996L33.0619 27.056L31.7255 28.544ZM33.5537 29.74V34.7H35.5537V29.74H33.5537ZM33.867 33.973L31.707 36.013L33.0803 37.467L35.2403 35.427L33.867 33.973ZM41.5737 27.8V36.74H43.5737V27.8H41.5737ZM43.2419 35.996L41.0819 34.056L39.7455 35.544L41.9055 37.484L43.2419 35.996ZM41.4137 34.8V29.86H39.4137V34.8H41.4137ZM41.1038 30.5837L43.2638 28.5237L41.8835 27.0763L39.7235 29.1363L41.1038 30.5837ZM49.3498 47.26L48.6261 46.5698L47.0142 48.26H49.3498V47.26ZM51.4098 45.1V44.1H50.9816L50.6861 44.4098L51.4098 45.1ZM56.3498 45.1L57.0903 44.428L56.7927 44.1H56.3498V45.1ZM58.3098 47.26V48.26H60.5675L59.0503 46.588L58.3098 47.26ZM48.7698 37.44L49.4667 36.7229L47.7698 35.0735V37.44H48.7698ZM50.9098 39.52H51.9098V39.0974L51.6067 38.8029L50.9098 39.52ZM50.9098 44.42L51.5852 45.1574L51.9098 44.8602V44.42H50.9098ZM48.7698 46.38H47.7698V48.6519L49.4452 47.1174L48.7698 46.38ZM51.0698 38.16L50.4529 38.9471L50.7246 39.16H51.0698V38.16ZM49.6698 37.06L49.0661 36.2627L48.0339 37.0443L49.0509 37.8455L49.6698 37.06ZM51.0698 36V35H50.7339L50.4661 35.2027L51.0698 36ZM56.5298 36L57.1334 35.2027L56.8656 35H56.5298V36ZM57.9298 37.06L58.5476 37.8463L59.567 37.0453L58.5334 36.2627L57.9298 37.06ZM56.5298 38.16V39.16H56.8756L57.1476 38.9463L56.5298 38.16ZM49.3298 26.94V25.94H47.0098L48.6028 27.6266L49.3298 26.94ZM58.2498 26.94L58.9937 27.6082L60.492 25.94H58.2498V26.94ZM56.3098 29.1V30.1H56.7557L57.0537 29.7682L56.3098 29.1ZM51.3698 29.1L50.6428 29.7866L50.9387 30.1H51.3698V29.1ZM48.7098 36.74H47.7098V39.0748L49.3998 37.4638L48.7098 36.74ZM48.7098 27.8L49.3814 27.0591L47.7098 25.5437V27.8H48.7098ZM50.8498 29.74H51.8498V29.2968L51.5214 28.9991L50.8498 29.74ZM50.8498 34.7L51.5398 35.4238L51.8498 35.1283V34.7H50.8498ZM50.0734 47.9502L52.1334 45.7902L50.6861 44.4098L48.6261 46.5698L50.0734 47.9502ZM51.4098 46.1H56.3498V44.1H51.4098V46.1ZM55.6092 45.772L57.5692 47.932L59.0503 46.588L57.0903 44.428L55.6092 45.772ZM58.3098 46.26H49.3498V48.26H58.3098V46.26ZM48.0728 38.1571L50.2128 40.2371L51.6067 38.8029L49.4667 36.7229L48.0728 38.1571ZM49.9098 39.52V44.42H51.9098V39.52H49.9098ZM50.2344 43.6826L48.0944 45.6426L49.4452 47.1174L51.5852 45.1574L50.2344 43.6826ZM49.7698 46.38V37.44H47.7698V46.38H49.7698ZM51.6866 37.3729C51.1939 36.9867 50.7279 36.6206 50.2886 36.2745L49.0509 37.8455C49.4916 38.1927 49.959 38.5599 50.4529 38.9471L51.6866 37.3729ZM50.2734 37.8573L51.6734 36.7973L50.4661 35.2027L49.0661 36.2627L50.2734 37.8573ZM51.0698 37H56.5298V35H51.0698V37ZM55.9261 36.7973L57.3261 37.8573L58.5334 36.2627L57.1334 35.2027L55.9261 36.7973ZM57.3119 36.2737L55.9119 37.3737L57.1476 38.9463L58.5476 37.8463L57.3119 36.2737ZM56.5298 37.16H51.0698V39.16H56.5298V37.16ZM49.3298 27.94H58.2498V25.94H49.3298V27.94ZM57.5058 26.2718L55.5658 28.4318L57.0537 29.7682L58.9937 27.6082L57.5058 26.2718ZM56.3098 28.1H51.3698V30.1H56.3098V28.1ZM52.0968 28.4134L50.0568 26.2534L48.6028 27.6266L50.6428 29.7866L52.0968 28.4134ZM49.7098 36.74V27.8H47.7098V36.74H49.7098ZM48.0381 28.5409L50.1781 30.4809L51.5214 28.9991L49.3814 27.0591L48.0381 28.5409ZM49.8498 29.74V34.7H51.8498V29.74H49.8498ZM50.1598 33.9762L48.0198 36.0162L49.3998 37.4638L51.5398 35.4238L50.1598 33.9762ZM66.6259 40H67.6259V39.6345L67.3902 39.3551L66.6259 40ZM66.6259 44.42L67.2978 45.1606L67.6259 44.8629V44.42H66.6259ZM64.4659 46.38H63.4659V48.6377L65.1378 47.1206L64.4659 46.38ZM64.4659 37.44L65.2302 36.7951L63.4659 34.7041V37.44H64.4659ZM71.0859 39.48L71.8106 38.791L71.5558 38.5229L71.1877 38.4852L71.0859 39.48ZM74.1659 42.72L75.163 42.7962L75.1968 42.3531L74.8906 42.031L74.1659 42.72ZM73.9459 45.6L73.2221 46.29L74.7719 47.9157L74.943 45.6762L73.9459 45.6ZM71.0259 42.54L70.1938 43.0947L70.2487 43.1771L70.3188 43.2471L71.0259 42.54ZM70.7859 42.3L71.6179 41.7453L71.5693 41.6724L71.5088 41.6091L70.7859 42.3ZM67.7659 39.14L67.8677 38.1452L65.1676 37.8687L67.0429 39.8309L67.7659 39.14ZM64.4659 37.44L65.1595 36.7197L63.4659 35.0888V37.44H64.4659ZM66.6259 39.52H67.6259V39.0947L67.3195 38.7997L66.6259 39.52ZM66.6259 44.42L67.2978 45.1606L67.6259 44.8629V44.42H66.6259ZM64.4659 46.38H63.4659V48.6377L65.1378 47.1206L64.4659 46.38ZM66.7659 38.16L66.1278 38.93L66.4054 39.16H66.7659V38.16ZM65.3659 37.06L64.7622 36.2627L63.6992 37.0676L64.7695 37.8627L65.3659 37.06ZM66.7659 36V35H66.43L66.1622 35.2027L66.7659 36ZM72.2459 36L72.8495 35.2027L72.5817 35H72.2459V36ZM73.6459 37.06L74.2637 37.8463L75.2831 37.0453L74.2495 36.2627L73.6459 37.06ZM72.2459 38.16V39.16H72.5917L72.8637 38.9463L72.2459 38.16ZM65.0459 26.94V25.94H62.7259L64.3188 27.6266L65.0459 26.94ZM73.9659 26.94L74.7098 27.6082L76.2081 25.94H73.9659V26.94ZM72.0259 29.1V30.1H72.4718L72.7698 29.7682L72.0259 29.1ZM67.0859 29.1L66.3588 29.7866L66.6548 30.1H67.0859V29.1ZM64.4059 36.74H63.4059V39.0599L65.0925 37.467L64.4059 36.74ZM64.4059 27.8L65.0741 27.056L63.4059 25.5577V27.8H64.4059ZM66.5659 29.74H67.5659V29.294L67.2341 28.996L66.5659 29.74ZM66.5659 34.7L67.2525 35.427L67.5659 35.131V34.7H66.5659ZM74.6059 27.8H75.6059V25.4644L73.9157 27.0763L74.6059 27.8ZM74.6059 36.74L73.9377 37.484L75.6059 38.9823V36.74H74.6059ZM72.4459 34.8H71.4459V35.246L71.7777 35.544L72.4459 34.8ZM72.4459 29.86L71.7557 29.1363L71.4459 29.4318V29.86H72.4459ZM67.7659 39.14V38.14H65.4269L67.0429 39.8309L67.7659 39.14ZM70.7659 39.14L71.4934 38.454L71.1974 38.14H70.7659V39.14ZM72.6459 41.14L71.9167 41.8243L71.9221 41.8301L71.9276 41.8358L72.6459 41.14ZM74.1659 42.72L75.163 42.7962L75.1964 42.3585L74.8969 42.0377L74.1659 42.72ZM73.9459 45.6L73.2221 46.29L74.7719 47.9157L74.943 45.6762L73.9459 45.6ZM71.0259 42.54L70.1938 43.0947L70.2487 43.1771L70.3188 43.2471L71.0259 42.54ZM70.7859 42.3L71.6179 41.7453L71.5693 41.6724L71.5088 41.6091L70.7859 42.3ZM65.6259 40V44.42H67.6259V40H65.6259ZM65.9539 43.6794L63.7939 45.6394L65.1378 47.1206L67.2978 45.1606L65.9539 43.6794ZM65.4659 46.38V37.44H63.4659V46.38H65.4659ZM63.7016 38.0849L65.8616 40.6449L67.3902 39.3551L65.2302 36.7951L63.7016 38.0849ZM70.3611 40.169L73.4411 43.409L74.8906 42.031L71.8106 38.791L70.3611 40.169ZM73.1688 42.6438L72.9488 45.5238L74.943 45.6762L75.163 42.7962L73.1688 42.6438ZM74.6697 44.91C72.7731 42.9206 71.7842 41.8841 71.733 41.8329L70.3188 43.2471C70.3183 43.2466 70.3738 43.3044 70.508 43.4448C70.6344 43.5769 70.8191 43.7704 71.0624 44.0254C71.5489 44.5352 72.2688 45.29 73.2221 46.29L74.6697 44.91ZM71.8579 41.9853C71.7492 41.8223 71.6174 41.7037 71.5059 41.62L70.3059 43.22C70.3012 43.2165 70.2875 43.2058 70.2688 43.1871C70.2501 43.1685 70.2227 43.1381 70.1938 43.0947L71.8579 41.9853ZM71.5059 41.62C71.5106 41.6235 71.5242 41.6342 71.543 41.6529C71.5616 41.6715 71.589 41.7019 71.6179 41.7453L69.9538 42.8547C70.0625 43.0177 70.1943 43.1363 70.3059 43.22L71.5059 41.62ZM71.5088 41.6091L68.4888 38.4491L67.0429 39.8309L70.0629 42.9909L71.5088 41.6091ZM67.664 40.1348L70.984 40.4748L71.1877 38.4852L67.8677 38.1452L67.664 40.1348ZM63.7722 38.1603L65.9322 40.2403L67.3195 38.7997L65.1595 36.7197L63.7722 38.1603ZM65.6259 39.52V44.42H67.6259V39.52H65.6259ZM65.9539 43.6794L63.7939 45.6394L65.1378 47.1206L67.2978 45.1606L65.9539 43.6794ZM65.4659 46.38V37.44H63.4659V46.38H65.4659ZM67.4039 37.39C66.9242 36.9925 66.4436 36.6149 65.9622 36.2573L64.7695 37.8627C65.2214 38.1984 65.6742 38.5542 66.1278 38.93L67.4039 37.39ZM65.9695 37.8573L67.3695 36.7973L66.1622 35.2027L64.7622 36.2627L65.9695 37.8573ZM66.7659 37H72.2459V35H66.7659V37ZM71.6422 36.7973L73.0422 37.8573L74.2495 36.2627L72.8495 35.2027L71.6422 36.7973ZM73.028 36.2737L71.628 37.3737L72.8637 38.9463L74.2637 37.8463L73.028 36.2737ZM72.2459 37.16H66.7659V39.16H72.2459V37.16ZM65.0459 27.94H73.9659V25.94H65.0459V27.94ZM73.2219 26.2718L71.2819 28.4318L72.7698 29.7682L74.7098 27.6082L73.2219 26.2718ZM72.0259 28.1H67.0859V30.1H72.0259V28.1ZM67.8129 28.4134L65.7729 26.2534L64.3188 27.6266L66.3588 29.7866L67.8129 28.4134ZM65.4059 36.74V27.8H63.4059V36.74H65.4059ZM63.7377 28.544L65.8977 30.484L67.2341 28.996L65.0741 27.056L63.7377 28.544ZM65.5659 29.74V34.7H67.5659V29.74H65.5659ZM65.8792 33.973L63.7192 36.013L65.0925 37.467L67.2525 35.427L65.8792 33.973ZM73.6059 27.8V36.74H75.6059V27.8H73.6059ZM75.2741 35.996L73.1141 34.056L71.7777 35.544L73.9377 37.484L75.2741 35.996ZM73.4459 34.8V29.86H71.4459V34.8H73.4459ZM73.136 30.5837L75.296 28.5237L73.9157 27.0763L71.7557 29.1363L73.136 30.5837ZM67.7659 40.14H70.7659V38.14H67.7659V40.14ZM70.0383 39.826C70.4775 40.2918 71.1035 40.9578 71.9167 41.8243L73.375 40.4557C72.5615 39.5888 71.9343 38.9215 71.4934 38.454L70.0383 39.826ZM71.9276 41.8358C72.7571 42.692 73.256 43.2107 73.4348 43.4023L74.8969 42.0377C74.7024 41.8293 74.188 41.2947 73.3641 40.4442L71.9276 41.8358ZM73.1688 42.6438L72.9488 45.5238L74.943 45.6762L75.163 42.7962L73.1688 42.6438ZM74.6697 44.91C72.7731 42.9206 71.7842 41.8841 71.733 41.8329L70.3188 43.2471C70.3183 43.2466 70.3738 43.3044 70.508 43.4448C70.6344 43.5769 70.8191 43.7704 71.0624 44.0254C71.5489 44.5352 72.2688 45.29 73.2221 46.29L74.6697 44.91ZM71.8579 41.9853C71.7492 41.8223 71.6174 41.7037 71.5059 41.62L70.3059 43.22C70.3012 43.2165 70.2875 43.2058 70.2688 43.1871C70.2501 43.1685 70.2227 43.1381 70.1938 43.0947L71.8579 41.9853ZM71.5059 41.62C71.5106 41.6235 71.5242 41.6342 71.543 41.6529C71.5616 41.6715 71.589 41.7019 71.6179 41.7453L69.9538 42.8547C70.0625 43.0177 70.1943 43.1363 70.3059 43.22L71.5059 41.62ZM71.5088 41.6091L68.4888 38.4491L67.0429 39.8309L70.0629 42.9909L71.5088 41.6091ZM81.042 47.26L80.3183 46.5698L78.7064 48.26H81.042V47.26ZM83.102 45.1V44.1H82.6738L82.3783 44.4098L83.102 45.1ZM88.042 45.1L88.7859 44.4318L88.4879 44.1H88.042V45.1ZM89.982 47.26V48.26H92.2242L90.7259 46.5918L89.982 47.26ZM90.622 46.38L89.9318 47.1037L91.622 48.7156V46.38H90.622ZM88.462 44.32H87.462V44.7482L87.7718 45.0437L88.462 44.32ZM88.462 39.4L87.79 38.6594L87.462 38.9571V39.4H88.462ZM90.622 37.44H91.622V35.1823L89.95 36.6994L90.622 37.44ZM82.762 38.16L82.1373 38.9409L82.4112 39.16H82.762V38.16ZM81.342 37.06L80.7438 36.2586L79.6728 37.0581L80.742 37.86L81.342 37.06ZM82.762 36V35H82.4299L82.1638 35.1986L82.762 36ZM88.222 36L88.8256 35.2027L88.5578 35H88.222V36ZM89.622 37.06L90.2398 37.8463L91.2592 37.0453L90.2256 36.2627L89.622 37.06ZM88.222 38.16V39.16H88.5678L88.8398 38.9463L88.222 38.16ZM81.022 26.94V25.94H78.6864L80.2983 27.6302L81.022 26.94ZM89.962 26.94L90.6991 27.6157L92.2352 25.94H89.962V26.94ZM87.982 29.1V30.1H88.4219L88.7191 29.7757L87.982 29.1ZM83.082 29.1L82.3583 29.7902L82.6538 30.1H83.082V29.1ZM80.382 36.74H79.382V39.0599L81.0686 37.467L80.382 36.74ZM80.382 27.8L81.0502 27.056L79.382 25.5577V27.8H80.382ZM82.542 29.74H83.542V29.294L83.2102 28.996L82.542 29.74ZM82.542 34.7L83.2286 35.427L83.542 35.131V34.7H82.542ZM81.7656 47.9502L83.8256 45.7902L82.3783 44.4098L80.3183 46.5698L81.7656 47.9502ZM83.102 46.1H88.042V44.1H83.102V46.1ZM87.298 45.7682L89.238 47.9282L90.7259 46.5918L88.7859 44.4318L87.298 45.7682ZM89.982 46.26H81.042V48.26H89.982V46.26ZM91.3121 45.6563L89.1521 43.5963L87.7718 45.0437L89.9318 47.1037L91.3121 45.6563ZM89.462 44.32V39.4H87.462V44.32H89.462ZM89.1339 40.1406L91.2939 38.1806L89.95 36.6994L87.79 38.6594L89.1339 40.1406ZM89.622 37.44V46.38H91.622V37.44H89.622ZM83.3866 37.3791C82.9118 36.9993 82.4303 36.6262 81.942 36.26L80.742 37.86C81.2137 38.2138 81.6788 38.5741 82.1373 38.9409L83.3866 37.3791ZM81.9401 37.8614L83.3601 36.8014L82.1638 35.1986L80.7438 36.2586L81.9401 37.8614ZM82.762 37H88.222V35H82.762V37ZM87.6183 36.7973L89.0183 37.8573L90.2256 36.2627L88.8256 35.2027L87.6183 36.7973ZM89.0041 36.2737L87.6041 37.3737L88.8398 38.9463L90.2398 37.8463L89.0041 36.2737ZM88.222 37.16H82.762V39.16H88.222V37.16ZM81.022 27.94H89.962V25.94H81.022V27.94ZM89.2248 26.2643L87.2448 28.4243L88.7191 29.7757L90.6991 27.6157L89.2248 26.2643ZM87.982 28.1H83.082V30.1H87.982V28.1ZM83.8056 28.4098L81.7456 26.2498L80.2983 27.6302L82.3583 29.7902L83.8056 28.4098ZM81.382 36.74V27.8H79.382V36.74H81.382ZM79.7138 28.544L81.8737 30.484L83.2102 28.996L81.0502 27.056L79.7138 28.544ZM81.542 29.74V34.7H83.542V29.74H81.542ZM81.8553 33.973L79.6953 36.013L81.0686 37.467L83.2286 35.427L81.8553 33.973ZM96.438 37.44L97.1317 36.7197L95.438 35.0888V37.44H96.438ZM98.598 39.52H99.598V39.0947L99.2917 38.7997L98.598 39.52ZM98.598 44.42L99.27 45.1606L99.598 44.8629V44.42H98.598ZM96.438 46.38H95.438V48.6377L97.11 47.1206L96.438 46.38ZM106.618 46.38L105.928 47.1037L107.618 48.7156V46.38H106.618ZM104.458 44.32H103.458V44.7482L103.768 45.0437L104.458 44.32ZM104.458 39.4L103.786 38.6594L103.458 38.9571V39.4H104.458ZM106.618 37.44H107.618V35.1823L105.946 36.6994L106.618 37.44ZM98.758 38.16L98.1334 38.9409L98.4073 39.16H98.758V38.16ZM97.338 37.06L96.7399 36.2586L95.6689 37.0581L96.738 37.86L97.338 37.06ZM98.758 36V35H98.426L98.1599 35.1986L98.758 36ZM104.218 36L104.822 35.2027L104.554 35H104.218V36ZM105.618 37.06L106.236 37.8463L107.255 37.0453L106.222 36.2627L105.618 37.06ZM104.218 38.16V39.16H104.564L104.836 38.9463L104.218 38.16ZM96.378 36.74H95.378V39.0599L97.0647 37.467L96.378 36.74ZM96.378 27.8L97.0463 27.056L95.378 25.5577V27.8H96.378ZM98.538 29.74H99.538V29.294L99.2063 28.996L98.538 29.74ZM98.538 34.7L99.2247 35.427L99.538 35.131V34.7H98.538ZM106.558 27.8H107.558V25.4644L105.868 27.0763L106.558 27.8ZM106.558 36.74L105.89 37.484L107.558 38.9823V36.74H106.558ZM104.398 34.8H103.398V35.246L103.73 35.544L104.398 34.8ZM104.398 29.86L103.708 29.1363L103.398 29.4318V29.86H104.398ZM95.7444 38.1603L97.9044 40.2403L99.2917 38.7997L97.1317 36.7197L95.7444 38.1603ZM97.598 39.52V44.42H99.598V39.52H97.598ZM97.9261 43.6794L95.7661 45.6394L97.11 47.1206L99.27 45.1606L97.9261 43.6794ZM97.438 46.38V37.44H95.438V46.38H97.438ZM107.308 45.6563L105.148 43.5963L103.768 45.0437L105.928 47.1037L107.308 45.6563ZM105.458 44.32V39.4H103.458V44.32H105.458ZM105.13 40.1406L107.29 38.1806L105.946 36.6994L103.786 38.6594L105.13 40.1406ZM105.618 37.44V46.38H107.618V37.44H105.618ZM99.3827 37.3791C98.9079 36.9993 98.4263 36.6262 97.938 36.26L96.738 37.86C97.2097 38.2138 97.6748 38.5741 98.1334 38.9409L99.3827 37.3791ZM97.9362 37.8614L99.3562 36.8014L98.1599 35.1986L96.7399 36.2586L97.9362 37.8614ZM98.758 37H104.218V35H98.758V37ZM103.614 36.7973L105.014 37.8573L106.222 36.2627L104.822 35.2027L103.614 36.7973ZM105 36.2737L103.6 37.3737L104.836 38.9463L106.236 37.8463L105 36.2737ZM104.218 37.16H98.758V39.16H104.218V37.16ZM97.378 36.74V27.8H95.378V36.74H97.378ZM95.7098 28.544L97.8698 30.484L99.2063 28.996L97.0463 27.056L95.7098 28.544ZM97.538 29.74V34.7H99.538V29.74H97.538ZM97.8514 33.973L95.6914 36.013L97.0647 37.467L99.2247 35.427L97.8514 33.973ZM105.558 27.8V36.74H107.558V27.8H105.558ZM107.226 35.996L105.066 34.056L103.73 35.544L105.89 37.484L107.226 35.996ZM105.398 34.8V29.86H103.398V34.8H105.398ZM105.088 30.5837L107.248 28.5237L105.868 27.0763L103.708 29.1363L105.088 30.5837ZM118.594 46.38L117.904 47.1037L119.594 48.7156V46.38H118.594ZM116.434 44.32H115.434V44.7482L115.744 45.0437L116.434 44.32ZM116.434 39.4L115.762 38.6594L115.434 38.9571V39.4H116.434ZM118.594 37.44H119.594V35.1823L117.922 36.6994L118.594 37.44ZM118.554 27.8H119.554V25.4644L117.864 27.0763L118.554 27.8ZM118.554 36.74L117.886 37.484L119.554 38.9823V36.74H118.554ZM116.394 34.8H115.394V35.246L115.726 35.544L116.394 34.8ZM116.394 29.86L115.704 29.1363L115.394 29.4318V29.86H116.394ZM119.284 45.6563L117.124 43.5963L115.744 45.0437L117.904 47.1037L119.284 45.6563ZM117.434 44.32V39.4H115.434V44.32H117.434ZM117.106 40.1406L119.266 38.1806L117.922 36.6994L115.762 38.6594L117.106 40.1406ZM117.594 37.44V46.38H119.594V37.44H117.594ZM117.554 27.8V36.74H119.554V27.8H117.554ZM119.222 35.996L117.062 34.056L115.726 35.544L117.886 37.484L119.222 35.996ZM117.394 34.8V29.86H115.394V34.8H117.394ZM117.084 30.5837L119.244 28.5237L117.864 27.0763L115.704 29.1363L117.084 30.5837ZM129.33 47.26L128.607 46.5698L126.995 48.26H129.33V47.26ZM131.39 45.1V44.1H130.962L130.667 44.4098L131.39 45.1ZM136.33 45.1L137.071 44.428L136.773 44.1H136.33V45.1ZM138.29 47.26V48.26H140.548L139.031 46.588L138.29 47.26ZM128.75 37.44L129.447 36.7229L127.75 35.0735V37.44H128.75ZM130.89 39.52H131.89V39.0974L131.587 38.8029L130.89 39.52ZM130.89 44.42L131.566 45.1574L131.89 44.8602V44.42H130.89ZM128.75 46.38H127.75V48.6519L129.426 47.1174L128.75 46.38ZM131.05 38.16L130.433 38.9471L130.705 39.16H131.05V38.16ZM129.65 37.06L129.047 36.2627L128.014 37.0443L129.031 37.8455L129.65 37.06ZM131.05 36V35H130.714L130.447 35.2027L131.05 36ZM136.51 36L137.114 35.2027L136.846 35H136.51V36ZM137.91 37.06L138.528 37.8463L139.547 37.0453L138.514 36.2627L137.91 37.06ZM136.51 38.16V39.16H136.856L137.128 38.9463L136.51 38.16ZM129.31 26.94V25.94H126.99L128.583 27.6266L129.31 26.94ZM138.23 26.94L138.974 27.6082L140.473 25.94H138.23V26.94ZM136.29 29.1V30.1H136.736L137.034 29.7682L136.29 29.1ZM131.35 29.1L130.623 29.7866L130.919 30.1H131.35V29.1ZM128.69 36.74H127.69V39.0748L129.38 37.4638L128.69 36.74ZM128.69 27.8L129.362 27.0591L127.69 25.5437V27.8H128.69ZM130.83 29.74H131.83V29.2968L131.502 28.9991L130.83 29.74ZM130.83 34.7L131.52 35.4238L131.83 35.1283V34.7H130.83ZM130.054 47.9502L132.114 45.7902L130.667 44.4098L128.607 46.5698L130.054 47.9502ZM131.39 46.1H136.33V44.1H131.39V46.1ZM135.59 45.772L137.55 47.932L139.031 46.588L137.071 44.428L135.59 45.772ZM138.29 46.26H129.33V48.26H138.29V46.26ZM128.053 38.1571L130.193 40.2371L131.587 38.8029L129.447 36.7229L128.053 38.1571ZM129.89 39.52V44.42H131.89V39.52H129.89ZM130.215 43.6826L128.075 45.6426L129.426 47.1174L131.566 45.1574L130.215 43.6826ZM129.75 46.38V37.44H127.75V46.38H129.75ZM131.667 37.3729C131.174 36.9867 130.708 36.6206 130.269 36.2745L129.031 37.8455C129.472 38.1927 129.939 38.5599 130.433 38.9471L131.667 37.3729ZM130.254 37.8573L131.654 36.7973L130.447 35.2027L129.047 36.2627L130.254 37.8573ZM131.05 37H136.51V35H131.05V37ZM135.907 36.7973L137.307 37.8573L138.514 36.2627L137.114 35.2027L135.907 36.7973ZM137.292 36.2737L135.892 37.3737L137.128 38.9463L138.528 37.8463L137.292 36.2737ZM136.51 37.16H131.05V39.16H136.51V37.16ZM129.31 27.94H138.23V25.94H129.31V27.94ZM137.486 26.2718L135.546 28.4318L137.034 29.7682L138.974 27.6082L137.486 26.2718ZM136.29 28.1H131.35V30.1H136.29V28.1ZM132.077 28.4134L130.037 26.2534L128.583 27.6266L130.623 29.7866L132.077 28.4134ZM129.69 36.74V27.8H127.69V36.74H129.69ZM128.019 28.5409L130.159 30.4809L131.502 28.9991L129.362 27.0591L128.019 28.5409ZM129.83 29.74V34.7H131.83V29.74H129.83ZM130.14 33.9762L128 36.0162L129.38 37.4638L131.52 35.4238L130.14 33.9762ZM145.326 47.26L144.603 46.5698L142.991 48.26H145.326V47.26ZM147.386 45.1V44.1H146.958L146.663 44.4098L147.386 45.1ZM152.326 45.1L153.067 44.428L152.769 44.1H152.326V45.1ZM154.286 47.26V48.26H156.544L155.027 46.588L154.286 47.26ZM144.746 37.44L145.443 36.7229L143.746 35.0735V37.44H144.746ZM146.886 39.52H147.886V39.0974L147.583 38.8029L146.886 39.52ZM146.886 44.42L147.562 45.1574L147.886 44.8602V44.42H146.886ZM144.746 46.38H143.746V48.6519L145.422 47.1174L144.746 46.38ZM144.686 36.74H143.686V39.0748L145.376 37.4638L144.686 36.74ZM144.686 27.8L145.358 27.0591L143.686 25.5437V27.8H144.686ZM146.826 29.74H147.826V29.2968L147.498 28.9991L146.826 29.74ZM146.826 34.7L147.516 35.4238L147.826 35.1283V34.7H146.826ZM146.05 47.9502L148.11 45.7902L146.663 44.4098L144.603 46.5698L146.05 47.9502ZM147.386 46.1H152.326V44.1H147.386V46.1ZM151.586 45.772L153.546 47.932L155.027 46.588L153.067 44.428L151.586 45.772ZM154.286 46.26H145.326V48.26H154.286V46.26ZM144.049 38.1571L146.189 40.2371L147.583 38.8029L145.443 36.7229L144.049 38.1571ZM145.886 39.52V44.42H147.886V39.52H145.886ZM146.211 43.6826L144.071 45.6426L145.422 47.1174L147.562 45.1574L146.211 43.6826ZM145.746 46.38V37.44H143.746V46.38H145.746ZM145.686 36.74V27.8H143.686V36.74H145.686ZM144.015 28.5409L146.155 30.4809L147.498 28.9991L145.358 27.0591L144.015 28.5409ZM145.826 29.74V34.7H147.826V29.74H145.826ZM146.136 33.9762L143.996 36.0162L145.376 37.4638L147.516 35.4238L146.136 33.9762ZM161.022 47.26L160.299 46.5698L158.687 48.26H161.022V47.26ZM163.082 45.1V44.1H162.654L162.359 44.4098L163.082 45.1ZM168.022 45.1L168.766 44.4318L168.468 44.1H168.022V45.1ZM169.962 47.26V48.26H172.205L170.706 46.5918L169.962 47.26ZM160.422 37.44L161.116 36.7197L159.422 35.0888V37.44H160.422ZM162.582 39.52H163.582V39.0947L163.276 38.7997L162.582 39.52ZM162.582 44.42L163.254 45.1606L163.582 44.8629V44.42H162.582ZM160.422 46.38H159.422V48.6377L161.094 47.1206L160.422 46.38ZM170.602 46.38L169.912 47.1037L171.602 48.7156V46.38H170.602ZM168.442 44.32H167.442V44.7482L167.752 45.0437L168.442 44.32ZM168.442 39.4L167.77 38.6594L167.442 38.9571V39.4H168.442ZM170.602 37.44H171.602V35.1823L169.93 36.6994L170.602 37.44ZM161.002 26.94V25.94H158.667L160.279 27.6302L161.002 26.94ZM169.942 26.94L170.68 27.6157L172.216 25.94H169.942V26.94ZM167.962 29.1V30.1H168.402L168.7 29.7757L167.962 29.1ZM163.062 29.1L162.339 29.7902L162.634 30.1H163.062V29.1ZM160.362 36.74H159.362V39.0599L161.049 37.467L160.362 36.74ZM160.362 27.8L161.031 27.056L159.362 25.5577V27.8H160.362ZM162.522 29.74H163.522V29.294L163.191 28.996L162.522 29.74ZM162.522 34.7L163.209 35.427L163.522 35.131V34.7H162.522ZM170.542 27.8H171.542V25.4644L169.852 27.0763L170.542 27.8ZM170.542 36.74L169.874 37.484L171.542 38.9823V36.74H170.542ZM168.382 34.8H167.382V35.246L167.714 35.544L168.382 34.8ZM168.382 29.86L167.692 29.1363L167.382 29.4318V29.86H168.382ZM161.746 47.9502L163.806 45.7902L162.359 44.4098L160.299 46.5698L161.746 47.9502ZM163.082 46.1H168.022V44.1H163.082V46.1ZM167.278 45.7682L169.218 47.9282L170.706 46.5918L168.766 44.4318L167.278 45.7682ZM169.962 46.26H161.022V48.26H169.962V46.26ZM159.729 38.1603L161.889 40.2403L163.276 38.7997L161.116 36.7197L159.729 38.1603ZM161.582 39.52V44.42H163.582V39.52H161.582ZM161.91 43.6794L159.75 45.6394L161.094 47.1206L163.254 45.1606L161.91 43.6794ZM161.422 46.38V37.44H159.422V46.38H161.422ZM171.293 45.6563L169.133 43.5963L167.752 45.0437L169.912 47.1037L171.293 45.6563ZM169.442 44.32V39.4H167.442V44.32H169.442ZM169.114 40.1406L171.274 38.1806L169.93 36.6994L167.77 38.6594L169.114 40.1406ZM169.602 37.44V46.38H171.602V37.44H169.602ZM161.002 27.94H169.942V25.94H161.002V27.94ZM169.205 26.2643L167.225 28.4243L168.7 29.7757L170.68 27.6157L169.205 26.2643ZM167.962 28.1H163.062V30.1H167.962V28.1ZM163.786 28.4098L161.726 26.2498L160.279 27.6302L162.339 29.7902L163.786 28.4098ZM161.362 36.74V27.8H159.362V36.74H161.362ZM159.694 28.544L161.854 30.484L163.191 28.996L161.031 27.056L159.694 28.544ZM161.522 29.74V34.7H163.522V29.74H161.522ZM161.836 33.973L159.676 36.013L161.049 37.467L163.209 35.427L161.836 33.973ZM169.542 27.8V36.74H171.542V27.8H169.542ZM171.211 35.996L169.051 34.056L167.714 35.544L169.874 37.484L171.211 35.996ZM169.382 34.8V29.86H167.382V34.8H169.382ZM169.073 30.5837L171.233 28.5237L169.852 27.0763L167.692 29.1363L169.073 30.5837Z" fill="#202020" mask="url(#path-1-outside-1_9_68)"/>
</svg>
